<?xml version="1.0" encoding="UTF-8" standalone="no"?>
<!-- Created with Inkscape (http://www.inkscape.org/) -->

<svg
   xmlns:dc="http://purl.org/dc/elements/1.1/"
   xmlns:cc="http://creativecommons.org/ns#"
   xmlns:rdf="http://www.w3.org/1999/02/22-rdf-syntax-ns#"
   xmlns:svg="http://www.w3.org/2000/svg"
   xmlns="http://www.w3.org/2000/svg"
   xmlns:sodipodi="http://sodipodi.sourceforge.net/DTD/sodipodi-0.dtd"
   xmlns:inkscape="http://www.inkscape.org/namespaces/inkscape"
   width="256"
   height="256"
   id="svg2"
   version="1.1"
   inkscape:version="0.48.4 r9939"
   sodipodi:docname="icon.svg">
  <defs
     id="defs4" />
  <sodipodi:namedview
     id="base"
     pagecolor="#ffffff"
     bordercolor="#666666"
     borderopacity="1.0"
     inkscape:pageopacity="0.0"
     inkscape:pageshadow="2"
     inkscape:zoom="1.4142136"
     inkscape:cx="73.754729"
     inkscape:cy="88.755416"
     inkscape:document-units="px"
     inkscape:current-layer="layer1"
     showgrid="false"
     inkscape:window-width="1317"
     inkscape:window-height="744"
     inkscape:window-x="49"
     inkscape:window-y="24"
     inkscape:window-maximized="1"
     showguides="true"
     inkscape:guide-bbox="true" />
  <metadata
     id="metadata7">
    <rdf:RDF>
      <cc:Work
         rdf:about="">
        <dc:format>image/svg+xml</dc:format>
        <dc:type
           rdf:resource="http://purl.org/dc/dcmitype/StillImage" />
        <dc:title />
      </cc:Work>
    </rdf:RDF>
  </metadata>
  <g
     inkscape:label="Layer 1"
     inkscape:groupmode="layer"
     id="layer1"
     transform="translate(0,-796.3622)">
    <g
       id="g3949"
       inkscape:export-filename="/home/bruno/Dev/httpd/eitri/img/content/icon-128x128.png"
       inkscape:export-xdpi="90"
       inkscape:export-ydpi="90">
      <rect
         y="796.36218"
         x="0"
         height="256"
         width="256"
         id="rect3836"
         style="fill:#ef1746;fill-opacity:1;stroke:none" />
      <path
         sodipodi:nodetypes="ccccccccccc"
         transform="translate(0,796.3622)"
         inkscape:connector-curvature="0"
         id="path3947"
         d="m 232.28458,75.68777 24.04163,24.041631 0,156.270599 -109.03658,0 -69.617088,-69.35192 6.473165,0.40901 59.043413,-11.31371 13.08148,-32.52691 19.79899,-54.447224 37.47666,-5.303301 z"
         style="fill:#c70d36;fill-opacity:1;stroke:none" />
      <g
         transform="translate(0,6)"
         id="g3938">
        <path
           style="fill:#666666;fill-opacity:1;stroke:none"
           d="m 84.581507,864.9105 c -2.083553,0 -3.760926,1.67738 -3.760926,3.76093 l 0,3.76093 -63.935747,0 c -1.875198,0 -3.384834,1.50963 -3.384834,3.38483 8.130241,26.04678 32.836172,36.63298 67.320581,38.62001 l 0,4.63064 c 0,2.08356 1.677373,3.76093 3.760926,3.76093 l 21.907393,0 c 9.36573,1.8063 16.45406,10.04075 16.45406,19.93291 0,7.58329 -4.16077,14.18796 -10.31905,17.67635 l -31.427236,0 c -1.875198,0 -3.384834,1.50964 -3.384834,3.38484 l 0,13.53933 136.14553,0 0,-13.53933 c 0,-1.8752 -1.50963,-3.38484 -3.38483,-3.38484 l -29.17069,0 c -6.15828,-3.48839 -10.31904,-10.09306 -10.31904,-17.67635 0,-9.87851 7.03906,-18.10938 16.38354,-19.93291 l 33.26069,0 c 2.08355,0 3.3936,-1.71001 3.76093,-3.76093 l 9.02622,-50.39641 c 0.36733,-2.05092 -1.67737,-3.76093 -3.76093,-3.76093 l -145.171753,0 z"
           id="rect3132"
           inkscape:connector-curvature="0" />
        <path
           inkscape:connector-curvature="0"
           style="fill:#4d4d4d;fill-opacity:1;stroke:none"
           d="m 16.625,76.09375 c -1.755615,0.129115 -3.125,1.585298 -3.125,3.375 8.130241,26.04678 32.828091,36.60672 67.3125,38.59375 l 0,4.65625 c 0,2.08356 1.697697,3.75 3.78125,3.75 l 21.90625,0 c 9.36573,1.8063 16.4375,10.04534 16.4375,19.9375 0,7.58329 -4.15422,14.16786 -10.3125,17.65625 l -31.4375,0 c -1.875198,0 -3.375,1.53105 -3.375,3.40625 l 0,13.53125 136.15625,0 0,-13.53125 c 0,-1.8752 -1.53105,-3.40625 -3.40625,-3.40625 l -29.15625,0 c -6.15828,-3.48839 -10.3125,-10.07296 -10.3125,-17.65625 0,-9.87851 7.03052,-18.11397 16.375,-19.9375 l 33.25,0 c 2.08355,0 3.41392,-1.69908 3.78125,-3.75 l 4.34375,-24.375 C 198.60327,98.017328 116.75329,97.276668 82.5,98.5 53.118036,99.549356 28.686863,84.967859 16.625,76.09375 z"
           transform="translate(0,796.3622)"
           id="path3158" />
        <path
           style="fill:none;stroke:#4d4d4d;stroke-width:1;stroke-linecap:butt;stroke-linejoin:miter;stroke-miterlimit:4;stroke-opacity:1;stroke-dasharray:none"
           d="m 80.4375,872.47404 0,40.52632"
           id="path3163"
           inkscape:connector-curvature="0"
           sodipodi:nodetypes="cc" />
        <path
           inkscape:connector-curvature="0"
           style="fill:#333333;fill-opacity:0.59817349;stroke:none"
           d="m 113.1875,163.71875 c -0.18847,0.115 -0.37005,0.23474 -0.5625,0.34375 l -31.4375,0 c -1.875198,0 -3.375,1.53105 -3.375,3.40625 l 0,13.53125 136.15625,0 0,-13.53125 c 0,-1.8752 -1.53105,-3.40625 -3.40625,-3.40625 l -29.15625,0 c -0.19245,-0.10901 -0.37403,-0.22875 -0.5625,-0.34375 l -67.65625,0 z"
           transform="translate(0,796.3622)"
           id="path3933" />
      </g>
    </g>
  </g>
</svg>
